<svg width="5806" height="1584" viewBox="0 0 5806 1584" fill="none" xmlns="http://www.w3.org/2000/svg">
<path d="M1685.8 1236C1629.8 1236 1580.6 1225.6 1538.2 1204.8C1496.6 1183.2 1464.2 1153.2 1441 1114.8C1418.6 1075.6 1407.4 1029.6 1407.4 976.8V595.2C1407.4 541.6 1418.6 495.6 1441 457.2C1464.2 418.8 1496.6 389.2 1538.2 368.4C1580.6 346.8 1629.8 336 1685.8 336C1742.6 336 1791.4 346.8 1832.2 368.4C1873.8 389.2 1906.2 418.8 1929.4 457.2C1952.6 495.6 1964.2 541.6 1964.2 595.2H1813C1813 553.6 1801.8 522 1779.4 500.4C1757.8 478.8 1726.6 468 1685.8 468C1645 468 1613.4 478.8 1591 500.4C1568.6 522 1557.4 553.2 1557.4 594V976.8C1557.4 1017.6 1568.6 1049.2 1591 1071.6C1613.4 1094 1645 1105.2 1685.8 1105.2C1726.6 1105.2 1757.8 1094 1779.4 1071.6C1801.8 1049.2 1813 1017.6 1813 976.8V888H1664.2V758.4H1964.2V976.8C1964.2 1029.6 1952.6 1075.6 1929.4 1114.8C1906.2 1153.2 1873.8 1183.2 1832.2 1204.8C1791.4 1225.6 1742.6 1236 1685.8 1236ZM2291.33 1236C2223.33 1236 2169.73 1218 2130.53 1182C2091.33 1146 2071.73 1097.6 2071.73 1036.8C2071.73 972 2093.33 922 2136.53 886.8C2179.73 851.6 2240.93 834 2320.13 834H2484.53V777.6C2484.53 745.6 2474.13 720.8 2453.33 703.2C2432.53 684.8 2404.13 675.6 2368.13 675.6C2335.33 675.6 2308.13 682.8 2286.53 697.2C2264.93 711.6 2252.13 731.2 2248.13 756H2101.73C2108.93 693.6 2136.93 644 2185.73 607.2C2234.53 570.4 2296.93 552 2372.93 552C2453.73 552 2517.33 572.4 2563.73 613.2C2610.93 653.2 2634.53 707.6 2634.53 776.4V1224H2489.33V1108.8H2465.33L2489.33 1076.4C2489.33 1125.2 2471.33 1164 2435.33 1192.8C2399.33 1221.6 2351.33 1236 2291.33 1236ZM2340.53 1123.2C2382.93 1123.2 2417.33 1112.4 2443.73 1090.8C2470.93 1069.2 2484.53 1041.2 2484.53 1006.8V926.4H2322.53C2292.13 926.4 2267.73 935.2 2249.33 952.8C2230.93 970.4 2221.73 993.6 2221.73 1022.4C2221.73 1053.6 2232.13 1078.4 2252.93 1096.8C2274.53 1114.4 2303.73 1123.2 2340.53 1123.2ZM3022.86 1234.8C2972.46 1234.8 2928.46 1226.8 2890.86 1210.8C2853.26 1194.8 2823.66 1172.8 2802.06 1144.8C2781.26 1116 2770.06 1082.4 2768.46 1044H2918.46C2920.06 1064.8 2930.06 1081.6 2948.46 1094.4C2967.66 1107.2 2992.46 1113.6 3022.86 1113.6H3075.66C3112.46 1113.6 3140.06 1106.4 3158.46 1092C3176.86 1077.6 3186.06 1058 3186.06 1033.2C3186.06 1010 3177.66 992 3160.86 979.2C3144.86 965.6 3119.66 956.8 3085.26 952.8L3003.66 940.8C2928.46 930.4 2873.26 910.4 2838.06 880.8C2802.86 851.2 2785.26 806.8 2785.26 747.6C2785.26 686 2806.06 638.4 2847.66 604.8C2889.26 570.4 2950.46 553.2 3031.26 553.2H3076.86C3150.46 553.2 3209.26 569.6 3253.26 602.4C3297.26 635.2 3320.86 679.2 3324.06 734.4H3174.06C3171.66 716.8 3161.66 702.4 3144.06 691.2C3127.26 680 3104.86 674.4 3076.86 674.4H3031.26C2996.86 674.4 2971.66 680.8 2955.66 693.6C2940.46 705.6 2932.86 723.6 2932.86 747.6C2932.86 770 2939.66 786.8 2953.26 798C2966.86 808.4 2988.86 816 3019.26 820.8L3104.46 832.8C3182.86 844 3240.46 865.2 3277.26 896.4C3314.86 926.8 3333.66 972 3333.66 1032C3333.66 1096 3311.66 1146 3267.66 1182C3224.46 1217.2 3160.46 1234.8 3075.66 1234.8H3022.86ZM3563.59 1236C3529.19 1236 3501.59 1226 3480.79 1206C3460.79 1186 3450.79 1158.8 3450.79 1124.4C3450.79 1090 3460.79 1062.8 3480.79 1042.8C3501.59 1022 3529.19 1011.6 3563.59 1011.6C3597.99 1011.6 3625.19 1022 3645.19 1042.8C3665.99 1062.8 3676.39 1090 3676.39 1124.4C3676.39 1158.8 3665.99 1186 3645.19 1206C3625.19 1226 3597.99 1236 3563.59 1236ZM3812.73 1224V1088.4L4157.13 696H3823.53V564H4332.33V699.6L3984.33 1092H4345.53V1224H3812.73ZM4493.86 1224V1087.2H4724.26V699.6H4523.86V564H4868.26V1087.2H5072.26V1224H4493.86ZM4784.26 453.6C4753.86 453.6 4729.86 446 4712.26 430.8C4694.66 414.8 4685.86 393.6 4685.86 367.2C4685.86 340.8 4694.66 320 4712.26 304.8C4729.86 288.8 4753.86 280.8 4784.26 280.8C4814.66 280.8 4838.66 288.8 4856.26 304.8C4873.86 320 4882.66 340.8 4882.66 367.2C4882.66 393.6 4873.86 414.8 4856.26 430.8C4838.66 446 4814.66 453.6 4784.26 453.6ZM5178.59 1440V564H5324.99V690H5358.59L5324.99 724.8C5324.99 671.2 5340.99 629.2 5372.99 598.8C5404.99 567.6 5448.19 552 5502.59 552C5568.99 552 5622.19 574.8 5662.19 620.4C5702.19 666 5722.19 727.2 5722.19 804V982.8C5722.19 1034 5712.99 1078.8 5694.59 1117.2C5676.99 1154.8 5651.79 1184 5618.99 1204.8C5586.19 1225.6 5547.39 1236 5502.59 1236C5448.19 1236 5404.99 1220.8 5372.99 1190.4C5340.99 1159.2 5324.99 1116.8 5324.99 1063.2L5358.59 1098H5323.79L5328.59 1255.2V1440H5178.59ZM5449.79 1106.4C5488.19 1106.4 5518.19 1095.2 5539.79 1072.8C5561.39 1050.4 5572.19 1018.4 5572.19 976.8V811.2C5572.19 769.6 5561.39 737.6 5539.79 715.2C5518.19 692.8 5488.19 681.6 5449.79 681.6C5412.19 681.6 5382.59 693.2 5360.99 716.4C5339.39 738.8 5328.59 770.4 5328.59 811.2V976.8C5328.59 1017.6 5339.39 1049.6 5360.99 1072.8C5382.59 1095.2 5412.19 1106.4 5449.79 1106.4Z" fill="black"/>
<path d="M522.829 671.212L301.217 1011.58L500.374 1011.77L478.028 1238.81L699.64 898.436L500.483 898.245L522.829 671.212Z" stroke="black" stroke-width="35" stroke-linecap="round" stroke-linejoin="round"/>
<path d="M916.667 546.304C896.078 536.058 906.372 566.797 916.667 546.304C875 529.132 916.667 600.301 916.667 546.304C916.373 546.888 916.667 569.166 916.667 546.304C916.667 569.166 893.698 546.304 916.667 546.304V293.281C916.667 201.812 843.888 128 751.99 128H251.99C160.091 128 83.3333 201.812 83.3333 293.281V1221.5L23.0313 1251.51C8.91146 1258.54 0 1272.89 0 1288.61V1413.02C0 1435.93 20.6458 1455.1 43.6563 1455.1H960.323C983.333 1455.1 1000 1435.93 1000 1413.02V1288.61C1000 1272.89 991.089 1258.54 976.969 1251.51L916.667 1221.5V546.304C916.667 492.308 916.667 519.943 916.667 546.304C916.667 614.912 915.592 539.404 916.667 546.304ZM916.667 1372.16H83.3333V1314.24L143.635 1284.23C157.755 1277.21 166.667 1262.85 166.667 1247.13V293.279C166.667 247.535 206.029 210.944 251.99 210.944H751.99C797.948 210.944 833.333 247.535 833.333 293.281V1247.14C833.333 1262.85 842.245 1277.21 856.365 1284.24L916.667 1314.24V1372.16Z" fill="black"/>
<mask id="path-4-inside-1_1_39" fill="white">
<path d="M243 349C243 321.386 265.386 299 293 299H707C734.614 299 757 321.386 757 349V524C757 551.614 734.614 574 707 574H293C265.386 574 243 551.614 243 524V349Z"/>
</mask>
<path d="M183 349C183 296.533 225.533 254 278 254H722C774.467 254 817 296.533 817 349H697C697 346.239 697 344 697 344H303C303 344 303 346.239 303 349H183ZM817 524C817 576.467 774.467 619 722 619H278C225.533 619 183 576.467 183 524H303C303 526.761 303 529 303 529H697C697 529 697 526.761 697 524H817ZM278 619C225.533 619 183 576.467 183 524V349C183 296.533 225.533 254 278 254L303 344C303 344 303 346.239 303 349V524C303 526.761 303 529 303 529L278 619ZM722 254C774.467 254 817 296.533 817 349V524C817 576.467 774.467 619 722 619L697 529C697 529 697 526.761 697 524V349C697 346.239 697 344 697 344L722 254Z" fill="black" mask="url(#path-4-inside-1_1_39)"/>
</svg>
